<svg width="25" height="12" viewBox="0 0 25 12" fill="none" xmlns="http://www.w3.org/2000/svg">
<path fill-rule="evenodd" clip-rule="evenodd" d="M18.7863 11.735H3.66248C2.40657 11.735 1.9361 11.6063 1.46205 11.3529C0.995038 11.1033 0.631668 10.7399 0.382044 10.2729C0.128654 9.80063 0 9.33064 0 8.07251V3.66248C0 2.40434 0.128654 1.93435 0.382044 1.46205C0.631668 0.995038 0.995038 0.631668 1.46205 0.382044C1.93435 0.128654 2.40434 0 3.66248 0H18.7863C20.0452 0 20.5153 0.128654 20.9876 0.382044C21.4546 0.631668 21.818 0.995038 22.0676 1.46205C22.3204 1.93495 22.4487 2.40512 22.4487 3.66248V8.07251C22.4487 9.32987 22.3204 9.80003 22.0676 10.2729C21.818 10.7399 21.4546 11.1033 20.9876 11.3529C20.5136 11.6063 20.0429 11.735 18.7863 11.735ZM3.66248 1.02031C2.70752 1.02031 2.32191 1.07881 1.94328 1.28113C1.65302 1.43644 1.43644 1.65302 1.28113 1.94328C1.07881 2.32191 1.02031 2.70752 1.02031 3.66248V8.07251C1.02031 9.02746 1.07881 9.41308 1.28113 9.79171C1.43666 10.0824 1.65325 10.2987 1.94328 10.4529C2.32144 10.656 2.70705 10.7147 3.66248 10.7147H18.7863C19.7424 10.7147 20.1282 10.656 20.5064 10.4529C20.7932 10.2999 21.0156 10.0774 21.1676 9.79171C21.3699 9.41308 21.4284 9.02746 21.4284 8.07251V3.66248C21.4284 2.70752 21.3699 2.32191 21.1676 1.94328C21.0159 1.65796 20.7934 1.43518 20.5064 1.28113C20.1278 1.07881 19.7419 1.02031 18.7863 1.02031H3.66248ZM23.47 7.8466V7.84492V3.76533L23.4767 3.76729C23.6326 3.8521 25 4.62982 25 5.80596C25 7.03638 23.5339 7.81334 23.4715 7.84582L23.47 7.8466Z" fill="#595959"/>
<path fill-rule="evenodd" clip-rule="evenodd" d="M2.04083 3.58846C2.04083 2.68676 2.7718 1.9558 3.6735 1.9558H18.7757C19.6773 1.9558 20.4083 2.68677 20.4083 3.58846V8.14632C20.4083 9.04802 19.6773 9.77898 18.7757 9.77898H3.6735C2.7718 9.77898 2.04083 9.04801 2.04083 8.14632V3.58846Z" fill="#595959"/>
</svg>
