<svg width="18" height="11" viewBox="0 0 18 11" fill="none" xmlns="http://www.w3.org/2000/svg">
<path fill-rule="evenodd" clip-rule="evenodd" d="M15.7288 11C15.0479 11 14.4955 10.4476 14.4955 9.76667V1.23332C14.4955 0.552359 15.0479 0 15.7288 0H16.346C17.0269 0 17.5793 0.552359 17.5793 1.23332V9.76667C17.5793 10.4476 17.0269 11 16.346 11H15.7288ZM10.8973 11C10.2154 11 9.66305 10.4476 9.66305 9.76668V3.7009C9.66305 3.01993 10.2154 2.46758 10.8973 2.46758H11.5135C12.1954 2.46758 12.7477 3.01993 12.7477 3.7009V9.76668C12.7477 10.4476 12.1954 11 11.5135 11H10.8973ZM6.16848 11C5.48658 11 4.93422 10.4476 4.93422 9.76668V6.06578C4.93422 5.38388 5.48658 4.83152 6.16848 4.83152H6.78467C7.46657 4.83152 8.01892 5.38388 8.01892 6.06578V9.76668C8.01892 10.4476 7.46657 11 6.78467 11H6.16848ZM1.23332 11C0.552359 11 0 10.4476 0 9.76668V8.12163C0 7.43973 0.552359 6.88738 1.23332 6.88738H1.85045C2.53142 6.88738 3.08378 7.43973 3.08378 8.12163V9.76668C3.08378 10.4476 2.53142 11 1.85045 11H1.23332Z" fill="#595959"/>
</svg>
