<svg width="7" height="9" viewBox="0 0 7 9" fill="none" xmlns="http://www.w3.org/2000/svg">
<path fill-rule="evenodd" clip-rule="evenodd" d="M5.90623 3.375H5.62498V2.24999C5.62498 1.00909 4.61588 0 3.37499 0C2.13408 0 1.12499 1.0091 1.12499 2.24999V3.375H0.843744C0.378752 3.375 0 3.75334 0 4.21875V8.15624C0 8.62165 0.378752 9 0.843744 9H5.90624C6.37123 9 6.74999 8.62166 6.74999 8.15624V4.21875C6.74999 3.75335 6.37124 3.375 5.90624 3.375H5.90623ZM1.87501 2.24999C1.87501 1.42272 2.54771 0.750015 3.37499 0.750015C4.20226 0.750015 4.87497 1.42272 4.87497 2.24999V3.375H1.87502L1.87501 2.24999Z" fill="#595959"/>
</svg>
