<svg width="8" height="9" viewBox="0 0 8 9" fill="none" xmlns="http://www.w3.org/2000/svg">
<path fill-rule="evenodd" clip-rule="evenodd" d="M6.39068 3.375H6.08636V2.24999C6.08636 1.00909 4.9945 0 3.65182 0C2.30914 0 1.21728 1.0091 1.21728 2.24999V3.375H0.912955C0.409819 3.375 0 3.75334 0 4.21875V8.15624C0 8.62165 0.409819 9 0.912955 9H6.39068C6.89382 9 7.30364 8.62166 7.30364 8.15624V4.21875C7.30364 3.75335 6.89382 3.375 6.39068 3.375ZM2.02882 2.24999C2.02882 1.42272 2.7567 0.750015 3.65183 0.750015C4.54695 0.750015 5.27484 1.42272 5.27484 2.24999V3.375H2.02883L2.02882 2.24999Z" fill="#595959"/>
</svg>
