<svg width="16" height="12" viewBox="0 0 16 12" fill="none" xmlns="http://www.w3.org/2000/svg">
<path fill-rule="evenodd" clip-rule="evenodd" d="M8.00045 11.488C7.91395 11.488 7.82943 11.4525 7.76855 11.3907L5.67494 9.27937C5.61068 9.21604 5.57489 9.12776 5.57676 9.03718C5.57862 8.9474 5.61815 8.86117 5.68523 8.80061C6.33148 8.25385 7.1537 7.95275 8.00045 7.95275C8.84721 7.95275 9.66943 8.25386 10.3157 8.80061C10.3831 8.86149 10.4223 8.9477 10.4232 9.03718C10.4251 9.12776 10.3893 9.21603 10.325 9.27937L8.23235 11.3907C8.17148 11.4525 8.08696 11.488 8.00045 11.488ZM11.675 7.78189C11.5913 7.78189 11.512 7.75017 11.4518 7.69256C10.5038 6.83452 9.2781 6.36196 8.00045 6.36196C6.72368 6.36289 5.49897 6.83544 4.55192 7.69256C4.49122 7.75016 4.41184 7.78189 4.32841 7.78189C4.24147 7.7819 4.15979 7.74785 4.09842 7.68601L2.88844 6.46388C2.82512 6.40056 2.78933 6.31262 2.79026 6.22263C2.79118 6.13307 2.82868 6.04582 2.89312 5.98326C4.28556 4.68803 6.09975 3.97473 8.0015 3.97473C9.90325 3.97473 11.7177 4.68804 13.1106 5.98326C13.175 6.04583 13.2125 6.13307 13.2135 6.22263C13.2144 6.31262 13.1786 6.40056 13.1153 6.46388L11.9053 7.68601C11.8439 7.74784 11.7621 7.78189 11.675 7.78189ZM14.4625 4.96883C14.3778 4.96883 14.2979 4.93624 14.2374 4.87706C12.5464 3.27072 10.3315 2.38605 8.00045 2.38605C5.6675 2.38605 3.45252 3.27072 1.76355 4.87707C1.70259 4.93624 1.62233 4.96883 1.53759 4.96883C1.45093 4.96883 1.36979 4.93492 1.30911 4.87333L0.0972643 3.6512C0.034542 3.58753 -0.000897024 3.50029 1.72639e-05 3.41182C0.000952331 3.32132 0.0368174 3.23663 0.101005 3.17338C2.23649 1.12699 5.04173 0 7.99998 0C10.9582 0 13.7635 1.12699 15.899 3.17338C15.9641 3.23756 16 3.32223 16 3.41182C16.0009 3.50193 15.966 3.58694 15.9018 3.6512L14.6909 4.87333C14.6302 4.93492 14.5491 4.96883 14.4625 4.96883Z" fill="#595959"/>
</svg>
